<?xml version="1.0" encoding="UTF-8"?>
<!DOCTYPE svg PUBLIC "-//W3C//DTD SVG 1.1//EN" "http://www.w3.org/Graphics/SVG/1.1/DTD/svg11.dtd">
<svg version="1.1" xmlns="http://www.w3.org/2000/svg" xmlns:xlink="http://www.w3.org/1999/xlink" x="0" y="0" width="799.5" height="799.5" viewBox="0, 0, 799.5, 799.5">
  <g id="Layer_1">
    <path d="M799.75,399.75 C799.75,620.664 620.664,799.75 399.75,799.75 C178.836,799.75 -0.25,620.664 -0.25,399.75 C-0.25,178.836 178.836,-0.25 399.75,-0.25 C620.664,-0.25 799.75,178.836 799.75,399.75 z" fill="#FFFFFF"/>
    <g>
      <path d="M614.9,343.2 C616.1,357.9 611.5,371.8 602.1,382.4 C592,393.7 576.9,399.9 560,399.9 L193.3,399.9 L193.3,399.9 C193.1,399.9 193,399.9 192.8,399.9 L192.6,399.9 L192.3,399.9 L192.3,399.9 C177.4,399.7 163.4,393.9 152.9,383.5 C141.8,372.5 135.8,357.8 135.6,342.3 L135.6,342.3 C135.6,313.4 155.3,289.9 182.1,285.5 C185.7,261.4 206.7,241.7 232.8,237.6 C234.3,228 239,218.8 246.3,211.2 C256.9,200.2 271.3,194.1 286,194.1 C305,194.1 321.6,204.4 330.5,219.8 C340.9,182.5 375.2,155.1 415.7,155.1 C460,155.1 497,188 503.1,230.7 C525.3,214.1 555,215.6 577.2,236.5 L574.8,234.4 C592.6,248.8 598.8,268.3 597.9,284.7 C597.4,294.5 594.1,303 588.3,310 C593.9,311.9 598.6,315.1 603,319.6 C609.2,325.8 613.4,333.5 614.6,342 L614.6,342 C614.8,342.3 614.8,342.7 614.9,343.2 C614.9,342.7 614.9,342.8 614.9,343.2 z M642.5,205.1 C629.5,187.5 610.2,174.5 588.9,169 C584.1,168 579.1,171.2 578.1,175.8 C576.2,180.6 579.3,186.8 584.4,187.8 C605.8,193.4 624.3,208.5 634,228.4 C642,244.7 644.1,263.8 639.6,281.4 C638.4,286.4 642,291.7 647.1,292.4 C651.7,293.8 656.9,291 658.4,286.6 C665.6,259 659.6,228 642.5,205.1 z M581.4,202.3 C574,200.9 568.4,210 571.6,216.3 C572.8,219 575.5,220.9 578.4,221.6 C589.5,224.5 599.3,232.2 604.4,242.5 C609,251.6 610,262.2 607.5,271.9 C606.1,276.9 609.7,282.3 614.9,283.2 C619.5,284.6 625,281.8 626.4,277 C631.2,259.5 627.6,240 617,225.5 C608.4,214 595.6,205.1 581.4,202.3 z" fill="#0D83D0"/>
      <g>
        <g>
          <path d="M151,561.9 L141.8,561.9 L141.8,521.3 L151,521.3 L167.3,546.6 L167.3,546.6 L167.3,521.3 L176.5,521.3 L176.5,561.9 L167.3,561.9 L151,536.6 L151,536.6 L151,561.9 z" fill="#363636"/>
          <path d="M247.7,529.2 L233.7,529.2 L233.7,537.1 L247,537.1 L247,545.3 L233.7,545.3 L233.7,553.5 L247.7,553.5 L247.7,561.7 L224.4,561.7 L224.4,521.1 L247.7,521.1 L247.7,529.2 z" fill="#363636"/>
          <path d="M292.2,521.1 L320.8,521.1 L320.8,529.3 L311.2,529.3 L311.2,561.6 L302,561.6 L302,529.3 L292.4,529.3 L292.2,521.1 L292.2,521.1 z" fill="#363636"/>
          <path d="M389.9,539.6 L383.4,562.4 L373.1,562.4 L361.7,521.8 L371.8,521.8 L378.6,549.9 L378.8,549.9 L386.2,521.8 L393,521.8 L400.4,549.9 L401.1,549.9 L407.9,521.8 L418.2,521.8 L406.7,562.4 L396.4,562.4 L389.9,539.6 z" fill="#363636"/>
          <path d="M480.4,520.5 C491.7,520.5 500.9,529.7 500.9,541.4 C500.9,553.4 492.2,562.4 480.4,562.4 C468.3,562.4 459.9,553.2 459.9,541.4 C459.9,529.5 469.1,520.5 480.4,520.5 z M480.4,553.5 C487.8,553.5 490.8,547.5 490.8,541.4 C490.8,535.6 487.4,529.3 480.4,529.3 C473.2,529.3 470,535.3 470,541.4 C470,547.5 472.9,553.5 480.4,553.5 z" fill="#363636"/>
          <path d="M561.4,521.1 C568.9,521.1 574.7,525.2 574.7,533.2 C574.7,539.2 571.3,543.5 566.3,544.8 L580.3,561.7 L568.7,561.7 L556.4,545.6 L556.4,561.7 L547.2,561.7 L547.2,521.1 L561.4,521.1 L561.4,521.1 z M557.1,539.3 C560.7,539.3 564.6,539.1 564.6,533.8 C564.6,528.5 560.5,528.3 557.1,528.3 L556.1,528.3 L556.1,538.9 L557.1,538.9 L557.1,539.3 z" fill="#363636"/>
          <path d="M648.1,561.9 L633,544.6 L633,561.9 L623.8,561.9 L623.8,521.3 L633,521.3 L633,538.1 L647,521.3 L658.3,521.3 L641.7,540.5 L660.5,561.9 L648.1,561.9 L648.1,561.9 z" fill="#363636"/>
        </g>
        <g>
          <path d="M135.8,430.3 L183.2,430.3 L183.2,443.8 L167.1,443.8 L167.1,497.7 L151.7,497.7 L151.7,443.8 L135.6,443.8 L135.8,430.3 L135.8,430.3 z" fill="#363636"/>
          <path d="M207.5,497.9 L192.1,497.9 L192.1,430.3 L207.5,430.3 L207.5,457.3 L229.2,457.3 L229.2,430.3 L244.6,430.3 L244.6,497.9 L229.2,497.9 L229.2,470.7 L207.5,470.7 L207.5,497.9 z" fill="#363636"/>
          <path d="M296.3,444 L273.2,444 L273.2,457.3 L295.4,457.3 L295.4,470.8 L273.2,470.8 L273.2,484.3 L296.5,484.3 L296.5,497.8 L257.7,497.8 L257.7,430.2 L296.4,430.2 L296.3,444 L296.3,444 z" fill="#363636"/>
          <path d="M325.9,430.3 L373.3,430.3 L373.3,443.8 L357.2,443.8 L357.2,497.7 L341.8,497.7 L341.8,443.8 L325.7,443.8 L325.9,430.3 L325.9,430.3 z" fill="#363636"/>
          <path d="M397.6,497.9 L382.2,497.9 L382.2,430.3 L397.6,430.3 L397.6,457.3 L419.3,457.3 L419.3,430.3 L434.7,430.3 L434.7,497.9 L419.3,497.9 L419.3,470.7 L397.6,470.7 L397.6,497.9 L397.6,497.9 z" fill="#363636"/>
          <path d="M463.3,497.9 L447.9,497.9 L447.9,430.3 L463.3,430.3 L463.3,497.9 z" fill="#363636"/>
          <path d="M491.7,497.9 L476.3,497.9 L476.3,430.3 L491.7,430.3 L518.4,472.1 L518.6,472.1 L518.6,430.3 L534,430.3 L534,497.9 L518.6,497.9 L491.9,456.1 L491.7,456.1 L491.7,497.9 L491.7,497.9 z" fill="#363636"/>
          <path d="M608.1,474.6 C604.3,491.7 590.1,499.1 577,499.1 C558.9,499.1 544.1,483.4 544.1,464.2 C544.1,444.7 558.1,429.3 577,429.3 C589,429.3 597,433.7 603,440.8 L592.9,451.9 C589,445.6 583.8,443.3 577.8,443.3 C568.4,443.3 560.7,452.7 560.7,464.3 C560.7,475.8 568.4,485 577.8,485 C585.2,485 592.5,480.2 592.5,472 L577.1,472 L577.1,460 L608.2,460 L608.2,474.5 L608.1,474.6 L608.1,474.6 z" fill="#363636"/>
          <path d="M662.5,435.6 L656.2,447.9 C656.2,447.9 649.5,443.3 642.7,443.3 C637.4,443.3 634.8,445.5 634.8,449.3 C634.8,453.1 641.3,455.8 648.8,459.1 C656.3,462.2 664.7,468.7 664.7,477.6 C664.7,493.7 652.4,499.3 639.2,499.3 C623.3,499.3 613.9,490.2 613.9,490.2 L621.6,477.2 C621.6,477.2 630.7,484.7 638.2,484.7 C641.6,484.7 648,484.4 648,478 C648,473.2 640.8,470.8 632.8,466.9 C624.6,463 620,456.6 620,449.6 C620,437.1 631.1,428.9 641.9,428.9 C653.8,429.1 662.5,435.6 662.5,435.6 z" fill="#363636"/>
        </g>
      </g>
    </g>
    <path d="M150.65,601.8 L150.75,601.8 L167.15,627.4 L176.55,627.4 L176.55,586.15 L167.15,586.15 L167.15,611.75 L167.05,611.75 L150.65,586.15 L141.25,586.15 L141.25,627.4 L150.65,627.4 z" fill="#363636"/>
    <path d="M239.15,586.15 L215.55,586.15 L215.55,627.4 L239.15,627.4 L239.15,619.15 L224.95,619.15 L224.95,610.85 L238.55,610.85 L238.55,602.6 L224.95,602.6 L224.95,594.4 L239.15,594.4 z" fill="#363636"/>
    <path d="M309.2,627.4 L319.6,627.4 L331.35,586.15 L320.95,586.15 L313.9,614.45 L313.65,614.45 L306.15,586.15 L299.05,586.15 L291.55,614.45 L291.3,614.45 L284.25,586.15 L273.8,586.15 L285.55,627.4 L296,627.4 L302.6,604.25 z" fill="#363636"/>
    <path d="M403.75,586.15 L418.95,608.9 L418.95,627.4 L428.35,627.4 L428.35,608.9 L443.55,586.15 L432.25,586.15 L423.65,599.35 L415.05,586.15 z" fill="#363636"/>
    <path d="M476.2,606.75 C476.2,618.8 484.8,628.15 497,628.15 C508.85,628.15 517.75,618.8 517.75,606.75 C517.75,594.7 508.45,585.4 497,585.4 C485.65,585.4 476.2,594.7 476.2,606.75 z M486.35,606.75 C486.35,600.6 489.75,594.45 497,594.45 C504.3,594.45 507.6,600.6 507.6,606.75 C507.6,612.9 504.5,619.05 497,619.05 C489.3,619.05 486.35,612.9 486.35,606.75 z" fill="#363636"/>
    <path d="M554.9,586.15 L554.9,627.4 L564.3,627.4 L564.3,611.1 L576.9,627.4 L588.85,627.4 L574.65,610.35 C579.7,608.75 583.1,604.6 583.1,598.4 C583.1,590.3 577.3,586.15 569.65,586.15 z M564.3,604.45 L564.3,593.65 L565.4,593.65 C568.95,593.65 573.2,593.9 573.2,599.05 C573.2,604.2 568.95,604.45 565.4,604.45 z" fill="#363636"/>
    <path d="M661.25,627.4 L642.05,605.7 L658.65,586.15 L647.25,586.15 L633.1,603 L633.1,586.15 L623.7,586.15 L623.7,627.4 L633.1,627.4 L633.1,609.9 L648.3,627.4 z" fill="#363636"/>
  </g>
</svg>
