<?xml version="1.0" encoding="UTF-8"?>
<!DOCTYPE svg PUBLIC "-//W3C//DTD SVG 1.1//EN" "http://www.w3.org/Graphics/SVG/1.1/DTD/svg11.dtd">
<svg version="1.1" xmlns="http://www.w3.org/2000/svg" xmlns:xlink="http://www.w3.org/1999/xlink" x="0" y="0" width="850.394" height="850.394" viewBox="0, 0, 850.394, 850.394">
  <g id="Layer_1">
    <text transform="matrix(1, 0, 0, 1, 431.197, 423)">
      <tspan x="-362.197" y="-59" font-family="AmericanTypewriter-Semibold" font-size="430" kerning="-27" fill="#363636"> </tspan>
      <tspan x="-281.697" y="-59" font-family="AmericanTypewriter-Semibold" font-size="430" fill="#363636">I</tspan>
      <tspan x="-362.197" y="338.6" font-family="AmericanTypewriter-Semibold" font-size="430" kerning="60" fill="#363636">N</tspan>
      <tspan x="26.323" y="338.6" font-family="AmericanTypewriter-Semibold" font-size="430" fill="#363636">Y</tspan>
    </text>
    <path d="M775.929,270.428 C776.821,281.355 773.401,291.688 766.414,299.568 C758.906,307.968 747.681,312.577 735.118,312.577 L462.524,312.577 L462.524,312.577 C462.375,312.577 462.301,312.577 462.152,312.577 L462.004,312.577 L461.781,312.577 L461.781,312.577 C450.704,312.428 440.297,308.117 432.492,300.386 C424.24,292.209 419.78,281.281 419.632,269.759 L419.632,269.759 C419.632,248.276 434.276,230.806 454.198,227.536 C456.874,209.62 472.485,194.976 491.887,191.928 C493.002,184.792 496.496,177.953 501.923,172.303 C509.802,164.126 520.507,159.591 531.434,159.591 C545.558,159.591 557.898,167.248 564.514,178.696 C572.245,150.968 597.743,130.6 627.849,130.6 C660.781,130.6 688.286,155.057 692.82,186.799 C709.323,174.459 731.401,175.574 747.904,191.11 L746.12,189.549 C759.352,200.254 763.961,214.75 763.292,226.941 C762.92,234.226 760.467,240.544 756.155,245.748 C760.318,247.16 763.812,249.539 767.083,252.884 C771.692,257.493 774.814,263.217 775.706,269.536 L775.706,269.536 C775.854,269.759 775.854,270.056 775.929,270.428 C775.929,270.056 775.929,270.131 775.929,270.428 z M796.446,167.769 C786.782,154.685 772.435,145.021 756.601,140.933 C753.033,140.19 749.316,142.568 748.573,145.988 C747.16,149.556 749.465,154.165 753.256,154.908 C769.164,159.071 782.917,170.296 790.127,185.089 C796.074,197.206 797.635,211.404 794.29,224.488 C793.398,228.205 796.074,232.144 799.865,232.665 C803.285,233.705 807.15,231.624 808.265,228.353 C813.618,207.836 809.158,184.792 796.446,167.769 z M751.026,165.687 C745.525,164.646 741.362,171.411 743.741,176.094 C744.633,178.101 746.64,179.514 748.796,180.034 C757.047,182.19 764.332,187.914 768.123,195.571 C771.543,202.335 772.286,210.215 770.428,217.426 C769.387,221.143 772.063,225.157 775.929,225.826 C779.348,226.866 783.437,224.785 784.478,221.217 C788.046,208.208 785.37,193.712 777.49,182.933 C771.097,174.385 761.582,167.769 751.026,165.687 z" fill="#0D83D0"/>
  </g>
</svg>
